<svg t="1663221282367" class="icon" viewBox="0 0 1024 1024" version="1.1" xmlns="http://www.w3.org/2000/svg" p-id="2604" width="200" height="200"><path d="M847.549 406.427c-7.741 7.834-7.578 26.207-16.111 36.092-10.702 12.404-27.908 23.036-43.623 29.75-19.888 8.487-41.245 15.435-62.929 18.349-9.069 1.236-19.071 3.054-27.932 3.754-1.702 0.14-31.546-4.383-26.09-8.021 11.984-7.927 28.654-9.233 42.247-14.945 21.497-9 44.999-25.484 51.784-48.053 14.502-48.449-49.686-111.354-99.324-78.013 2.285-37.725-32.128-77.221-72.417-77.734-44.743-0.56-74.609 22.43-83.54 64.444-5.945 27.583-2.285 56.633 1.609 84.122-21.147-43.133-31.686-119.701-96.549-121.543-25.321-0.77-43.017 16.437-51.784 37.375-9.256 22.22-3.637 31.219 4.407 50.921-48.449-21.427-110.912 4.36-105.199 59.757 3.917 38.074 52.903 60.317 91.047 73.84 7.787 2.774 15.155 5.153 21.543 7.274-13.64 7.111-33.574 7.671-48.636 12.823-30.053 10.306-58.591 27.605-62.672 60.271-3.357 26.557 19.025 49.919 40.289 63.954 11.658 7.647 24.808 13.663 38.261 17.627 14.013 4.127 26.79 4.756 28.072 21.823 0.956 12.73-4.383 24.317-1.189 37.165 5.852 23.734 24.504 40.125 48.193 47.843 75.355 24.598 118.513-63.418 125.087-125.437 1.26 41.175 19.166 104.64 69.923 101.935 46.468-2.472 77.874-50.921 55.701-92.096 39.426 18.466 107.018-0.933 104.22-53.626-2.984-56.05-47.47-72.65-92.632-84.541 4.593 1.188 37.095-17.44 45.115-19.818 34.25-10.166 67.591-18.373 98.228-37.584 15.901-9.979 34.087-27.256 37.935-45.675 1.911-9.116-0.537-34.623-13.034-22.033zM615.863 618.784c-15.738-9.77-22.546-14.246-37.025-26.137-12.474-10.282-27.838-21.613-36.302-35.369-1.306-2.122-1.445-4.757-3.078-6.785-1.771-2.122-2.634-4.826-6.225-3.707-3.73 1.189-4.873 15.808-5.27 18.745-1.539 9.909-0.606 19.795-0.21 29.751-6.574-12.66-8.836-26.3-9.209-40.429-0.233-8.138-2.425-14.036-9.327-8.348-8.58 7.088-15.621 16.531-24.994 23.27-13.942 10.025-33.364 28.211-50.198 34.646 20.284-17.44 40.149-36.559 58.941-55.444 4.22-4.196 14.922-13.803 11.518-19.515-4.407-7.508-24.551-9.396-32.338-11.845-6.179-1.958-12.334-4.08-18.279-6.621-4.267-1.889-12.474-8.091-16.064-8.371 8.813 0.63 16.087 4.803 24.271 7.181 8.603 2.448 17.929 2.845 26.859 3.591 5.549 0.466 7.554-0.373 7.438-1.912-0.256-4.197-16.927-13.849-19.841-15.994-24.551-19.142-49.079-42.714-59.198-71.998 16.414 20.004 34.81 38.75 55.165 55.188 6.901 5.619 42.458 37.958 52.669 26.79 2.635-2.891 1.072-13.756 1.563-17.347 1.212-8.067 2.121-17.626 5.596-25.041 4.243 10.375-2.495 47.914 15.085 49.965 7.298 0.862 15.668-7.671 21.217-11.401 26.16-17.767 54.441-37.771 74.423-61.973-8.79 10.818-14.898 23.036-24.341 33.341-9.467 10.212-19.726 19.655-29.961 29.074-12.171 11.168-43.366 27.628-15.598 41.036 17.953 8.696 43.04 13.732 63.278 12.8-15.202 4.104-31.803 4.383-47.4 2.751-6.691-0.652-19.516-7.764-25.903-4.337-10.702 5.736 13.966 23.829 18.535 28.072 20.541 19.305 44.323 36.698 67.708 49.988-7.718-0.605-26.93-9.511-33.505-13.615z" fill="#BFCD36" p-id="2605"></path></svg>